<?xml version="1.0" encoding="UTF-8"?>
<!DOCTYPE svg PUBLIC "-//W3C//DTD SVG 1.1//EN" "http://www.w3.org/Graphics/SVG/1.1/DTD/svg11.dtd">
<!-- Creator: CorelDRAW 2018 (64-Bit) -->
<svg xmlns="http://www.w3.org/2000/svg" xml:space="preserve" width="2.8687mm" height="3.6589mm" version="1.1" style="shape-rendering:geometricPrecision; text-rendering:geometricPrecision; image-rendering:optimizeQuality; fill-rule:evenodd; clip-rule:evenodd"
viewBox="0 0 4.05 5.17"
 xmlns:xlink="http://www.w3.org/1999/xlink">
 <defs>
  <style type="text/css">
   <![CDATA[
    .fil0 {fill:#FEFEFE}
   ]]>
  </style>
 </defs>
 <g id="Слой_x0020_1">
  <metadata id="CorelCorpID_0Corel-Layer"/>
  <g id="_2990602135360">
   <g>
    <path class="fil0" d="M-0 0l4.05 0 0 5.17 -4.05 0 0 -5.17zm3.77 0.28l-3.49 0 0 4.61 3.49 0 0 -4.61z"/>
   </g>
   <g id="_2990602140288">
    <g>
     <path class="fil0" d="M0.99 1.2l0.87 0c0.05,0 0.09,0.04 0.09,0.09l0 0c0,0.05 -0.04,0.09 -0.09,0.09l-0.87 0c-0.05,0 -0.09,-0.04 -0.09,-0.09l0 -0c0,-0.05 0.04,-0.09 0.09,-0.09z"/>
    </g>
    <g>
     <path class="fil0" d="M0.99 1.89l2.16 0c0.05,0 0.09,0.04 0.09,0.09l0 0c0,0.05 -0.04,0.09 -0.09,0.09l-2.16 0c-0.05,0 -0.09,-0.04 -0.09,-0.09l0 -0c0,-0.05 0.04,-0.09 0.09,-0.09z"/>
    </g>
    <g>
     <path class="fil0" d="M0.99 2.58l2.16 0c0.05,0 0.09,0.04 0.09,0.09l0 0c0,0.05 -0.04,0.09 -0.09,0.09l-2.16 0c-0.05,0 -0.09,-0.04 -0.09,-0.09l0 -0c0,-0.05 0.04,-0.09 0.09,-0.09z"/>
    </g>
    <g>
     <path class="fil0" d="M0.99 3.26l2.16 0c0.05,0 0.09,0.04 0.09,0.09l0 0c0,0.05 -0.04,0.09 -0.09,0.09l-2.16 0c-0.05,0 -0.09,-0.04 -0.09,-0.09l0 -0c0,-0.05 0.04,-0.09 0.09,-0.09z"/>
    </g>
    <g>
     <path class="fil0" d="M0.99 3.96l2.16 0c0.05,0 0.09,0.04 0.09,0.09l0 0c0,0.05 -0.04,0.09 -0.09,0.09l-2.16 0c-0.05,0 -0.09,-0.04 -0.09,-0.09l0 -0c0,-0.05 0.04,-0.09 0.09,-0.09z"/>
    </g>
   </g>
  </g>
 </g>
</svg>
