<?xml version="1.0" encoding="iso-8859-1"?>
<!-- Generator: Adobe Illustrator 19.0.0, SVG Export Plug-In . SVG Version: 6.00 Build 0)  -->
<svg version="1.1" id="Layer_1" xmlns="http://www.w3.org/2000/svg" xmlns:xlink="http://www.w3.org/1999/xlink" x="0px" y="0px"
	 viewBox="0 0 512 512" style="enable-background:new 0 0 512 512;" xml:space="preserve">
<g>
	<g>
		<path d="M259.992,0.032C190.125-1.049,124.473,25.547,75.085,74.879c-35.186,35.147-58.823,78.572-69.157,125.898
			c-0.119,0.447-0.223,0.898-0.304,1.359c-3.971,18.677-5.873,37.953-5.597,57.562C1.997,399.106,116.693,512.001,256.006,512
			c0.46,0,0.924-0.001,1.385-0.003c38.533-0.206,75.531-8.794,110.045-25.534h59.642c28.859,0,52.34-23.479,52.34-52.34v-53.188
			c20.914-37.34,32.162-79.582,32.569-122.465C513.32,118.107,400.276,2.173,259.992,0.032z M438.427,127.979
			c12.939,18.372,23.177,38.761,30.138,60.574H358.588L438.427,127.979z M327.841,44.858c34.448,11.782,65.115,31.784,89.678,57.628
			l-89.678,68.04V44.858z M98.369,98.189c24.611-24.585,53.869-42.67,85.791-53.486v130.02l-92.747-69.256
			C93.674,103.001,95.986,100.57,98.369,98.189z M70.971,131.321l76.645,57.232H43.262
			C49.657,168.284,58.963,149.046,70.971,131.321z M74.268,384.948c-13.264-18.601-23.754-39.302-30.844-61.501h105.439
			L74.268,384.948z M184.16,467.094c-34.008-11.662-64.399-31.345-88.857-56.786l88.857-73.26V467.094z M427.078,453.516h-63.49
			c-2.574,0-5.112,0.603-7.412,1.762c-9.243,4.656-18.698,8.62-28.337,11.916V343.131l117.41,97.699
			C442.512,448.222,435.41,453.516,427.078,453.516z M448.718,368.253c-1.472,2.52-2.247,5.387-2.247,8.306v22.425l-90.776-75.536
			h112.886C463.637,339.024,456.998,354.068,448.718,368.253z M476.334,290.5H311.366c-9.098,0-16.474,7.376-16.474,16.474v168.703
			c-12.335,2.17-24.909,3.304-37.677,3.373c-0.41,0.002-0.799,0.003-1.208,0.003c-13.256,0-26.256-1.174-38.901-3.422V306.975
			c0-9.098-7.376-16.474-16.474-16.474H35.638c-1.6-10.215-2.517-20.651-2.668-31.269c-0.18-12.772,0.714-25.379,2.615-37.731
			h165.048c9.098,0,16.474-7.376,16.474-16.474V40.361c0-1.372-0.187-2.697-0.502-3.971c12.86-2.273,26.017-3.442,39.362-3.442
			c1.171,0,2.349,0.009,3.523,0.026c12.228,0.187,24.213,1.382,35.889,3.476c-0.306,1.256-0.487,2.561-0.487,3.911v164.666
			c0,9.098,7.376,16.474,16.474,16.474h164.987c1.872,11.944,2.807,24.186,2.688,36.656
			C478.938,269.017,478.008,279.825,476.334,290.5z" fill="#fff"/>
	</g>
</g>
<g>
</g>
<g>
</g>
<g>
</g>
<g>
</g>
<g>
</g>
<g>
</g>
<g>
</g>
<g>
</g>
<g>
</g>
<g>
</g>
<g>
</g>
<g>
</g>
<g>
</g>
<g>
</g>
<g>
</g>
</svg>
