<?xml version="1.0" encoding="UTF-8"?>
<svg width="691.67" height="272.29" version="1.1" viewBox="0 0 691.66626 272.29126" xml:space="preserve" xmlns="http://www.w3.org/2000/svg" xmlns:cc="http://creativecommons.org/ns#" xmlns:dc="http://purl.org/dc/elements/1.1/" xmlns:rdf="http://www.w3.org/1999/02/22-rdf-syntax-ns#"><metadata><rdf:RDF><cc:Work rdf:about=""><dc:format>image/svg+xml</dc:format><dc:type rdf:resource="http://purl.org/dc/dcmitype/StillImage"/><dc:title/></cc:Work></rdf:RDF></metadata><defs><clipPath id="a"><path d="m0 217.83h553.33v-217.83h-553.33v217.83z"/></clipPath></defs><g transform="matrix(1.25 0 0 -1.25 0 272.29)"><g clip-path="url(#a)"><g transform="translate(186.5 6.233)"><path d="m0 0h-156.78c-14.133 0-25.59 11.457-25.59 25.59v156.78c0 14.133 11.457 25.59 25.59 25.59h156.78c14.133 0 25.59-11.457 25.59-25.59v-156.78c0-14.133-11.457-25.59-25.59-25.59" fill="#556cab"/></g><g transform="translate(103.78 69.64)"><path d="m0 0c0-15.458-12.512-27.971-28.71-27.971h-3.678c-11.225 0-22.266 5.337-27.971 13.618l-0.919 1.103 7.727 13.25 2.023-3.13c4.237-6.624 12.884-9.384 22.45-9.568h0.368c7.547 0 13.252 5.52 13.252 12.698 0 6.44-3.866 10.12-13.62 11.593-14.351 0.551-31.464 8.646-31.464 25.76 0 14.721 11.776 26.865 25.947 26.865h1.839c9.387 0 19.32-4.415 24.473-10.855l1.103-1.289-8.278-14.721-2.211 2.576c-4.413 5.153-9.382 7.729-15.087 7.913-6.072 0-11.776-3.312-11.776-10.489 0-3.68 1.655-9.017 16.373-9.568 17.118-2.025 28.159-12.88 28.159-27.785" fill="#fff"/></g><g transform="translate(173.71 133.49)"><path d="m0 0v-16.56h-30.549l0.184-75.629h-16.374l-0.184 75.629h-13.803v16.56h13.803v0.184c0 26.497 20.975 45.452 46.739 45.452v-17.298c-16.382 0-30.365-11.408-30.365-28.338h30.549z" fill="#fff"/></g><g transform="translate(88.436 163.83)"><path d="m0 0c0-8.445-6.846-15.292-15.292-15.292-8.445 0-15.291 6.847-15.291 15.292s6.846 15.292 15.291 15.292c8.446 0 15.292-6.847 15.292-15.292" fill="#fff"/></g><path d="m251.53 41.209h-16.929v137.82h16.929v-137.82z" fill="#fff"/><g transform="translate(343.72 82.98)"><path d="m0 0v7.729c-2.027 14.169-13.804 25.025-27.971 25.025-15.458 0-28.154-13.064-28.154-28.704 0-16.011 12.696-29.074 28.154-29.074 14.167 0 25.944 10.855 27.971 25.024m16.741 50.419v-92.189h-16.741v10.306c-7.547-6.442-17.118-10.306-27.971-10.306-24.293 0-44.164 20.241-44.164 45.82 0 25.024 19.871 45.449 44.164 45.449 10.853 0 20.424-3.863 27.971-10.303v11.223h16.741z" fill="#fff"/></g><g transform="translate(398.73 84.085)"><path d="m0 0c2.027-14.537 13.804-25.762 28.338-25.762 15.639 0 28.702 13.064 28.702 29.442 0 16.192-13.063 29.258-28.702 29.258-14.534 0-26.311-11.226-28.338-25.763v-7.175zm0 95.133v-55.756c7.911 6.44 17.297 10.49 28.338 10.49 25.025 0 45.084-20.425 45.084-46.187s-20.059-46.372-45.084-46.372c-11.041 0-20.427 4.048-28.338 10.49v-10.49h-16.562v137.82h16.562z" fill="#fff"/></g><g transform="translate(550.18 69.364)"><path d="m0 0c0-15.458-12.512-27.971-28.71-27.971h-3.678c-11.225 0-22.266 5.337-27.971 13.618l-0.919 1.103 7.727 13.25 2.023-3.13c4.237-6.624 12.884-9.384 22.45-9.568h0.368c7.547 0 13.252 5.52 13.252 12.698 0 6.44-3.866 10.12-13.62 11.593-14.351 0.551-31.464 8.646-31.464 25.76 0 14.721 11.776 26.865 25.948 26.865h1.838c9.387 0 19.32-4.415 24.473-10.855l1.103-1.289-8.278-14.721-2.211 2.576c-4.413 5.153-9.382 7.729-15.087 7.913-6.072 0-11.776-3.312-11.776-10.489 0-3.68 1.655-9.017 16.373-9.568 17.118-2.025 28.159-12.88 28.159-27.785" fill="#fff"/></g></g></g></svg>

