<?xml version="1.0" encoding="UTF-8"?>
<!DOCTYPE svg PUBLIC "-//W3C//DTD SVG 1.1//EN" "http://www.w3.org/Graphics/SVG/1.1/DTD/svg11.dtd">
<!-- Creator: CorelDRAW 2018 (64-Bit) -->
<svg xmlns="http://www.w3.org/2000/svg" xml:space="preserve" width="4.3667mm" height="3.5778mm" version="1.1" style="shape-rendering:geometricPrecision; text-rendering:geometricPrecision; image-rendering:optimizeQuality; fill-rule:evenodd; clip-rule:evenodd"
viewBox="0 0 9.33 7.64"
 xmlns:xlink="http://www.w3.org/1999/xlink">
 <defs>
  <style type="text/css">
   <![CDATA[
    .fil1 {fill:#FEFEFE}
    .fil2 {fill:#FEFEFE}
    .fil0 {fill:#FEFEFE;fill-rule:nonzero}
   ]]>
  </style>
 </defs>
 <g id="Слой_x0020_1">
  <metadata id="CorelCorpID_0Corel-Layer"/>
  <g id="_2990603049104">
   <g>
    <g>
     <path class="fil0" d="M4.48 3.93c0,-0.12 0.1,-0.21 0.21,-0.21 0.12,0 0.21,0.1 0.21,0.21l-0.43 -0zm-0.01 1.29l0.01 -1.29 0.43 0 -0.01 1.29 -0.36 0.16 -0.07 -0.16zm0.43 0c-0,0.12 -0.1,0.21 -0.21,0.21 -0.12,-0 -0.21,-0.1 -0.21,-0.21l0.43 0zm0.51 0.96l-0.87 -0.8 0.29 -0.31 0.87 0.8 -0.29 0.31zm0.29 -0.31c0.09,0.08 0.09,0.21 0.01,0.3 -0.08,0.09 -0.21,0.09 -0.3,0.01l0.29 -0.31z"/>
    </g>
    <g>
     <path class="fil0" d="M4.53 5.06c0.08,-0.08 0.22,-0.09 0.3,-0 0.08,0.08 0.09,0.22 0,0.3l-0.3 -0.3zm-0.8 0.82l0.8 -0.82 0.3 0.3 -0.8 0.82 -0.3 -0.3zm0.3 0.3c-0.08,0.08 -0.22,0.09 -0.3,0 -0.08,-0.08 -0.09,-0.22 -0,-0.3l0.3 0.3z"/>
    </g>
   </g>
   <polygon class="fil1" points="5.97,7.46 9.33,7.46 9.33,7.64 5.97,7.64 "/>
   <g>
    <path class="fil1" d="M7.68 4.25c0.55,0 1,0.42 1,0.93 0,0.51 -0.45,0.93 -1,0.93 -0.55,0 -1,-0.42 -1,-0.93 0,-0.51 0.45,-0.93 1,-0.93zm0.41 0.58c-0.1,-0.1 -0.25,-0.16 -0.41,-0.16 -0.16,0 -0.31,0.06 -0.41,0.16 -0.1,0.09 -0.15,0.21 -0.15,0.35 0,0.13 0.06,0.26 0.15,0.35 0.1,0.1 0.25,0.16 0.41,0.16 0.16,0 0.31,-0.06 0.41,-0.16 0.1,-0.09 0.15,-0.21 0.15,-0.35 0,-0.13 -0.06,-0.26 -0.15,-0.35z"/>
   </g>
   <g>
    <path class="fil0" d="M7.65 6.33l0 0.43 0 0 -0.07 0 -0.07 0 -0.07 0.01 -0.07 0.01 -0.06 0.01 -0.06 0.01 -0.06 0.01 -0.06 0.01 -0.06 0.02 -0.06 0.02 -0.05 0.02 -0.05 0.02 -0.05 0.02 -0.05 0.02 -0.05 0.03 -0.04 0.03 -0.04 0.03 -0.04 0.03 -0.04 0.03 -0.03 0.03 -0.03 0.03 -0.03 0.03 -0.02 0.03 -0.02 0.03 -0.02 0.03 -0.02 0.03 -0.01 0.03 -0.01 0.03 -0.01 0.03 -0.01 0.03 -0 0.03 -0 0.03 -0.43 0 0 -0.06 0.01 -0.06 0.01 -0.06 0.02 -0.06 0.02 -0.06 0.03 -0.06 0.03 -0.06 0.03 -0.05 0.04 -0.05 0.04 -0.05 0.04 -0.05 0.05 -0.05 0.05 -0.04 0.05 -0.04 0.05 -0.04 0.06 -0.04 0.06 -0.04 0.06 -0.03 0.06 -0.03 0.06 -0.03 0.07 -0.03 0.07 -0.03 0.07 -0.02 0.07 -0.02 0.07 -0.02 0.08 -0.02 0.08 -0.01 0.08 -0.01 0.08 -0.01 0.08 -0.01 0.08 -0 0.08 -0 0 0zm1.68 1.14l-0.43 0 -0 -0.03 -0 -0.03 -0.01 -0.03 -0.01 -0.03 -0.01 -0.03 -0.01 -0.03 -0.02 -0.03 -0.02 -0.03 -0.02 -0.03 -0.02 -0.03 -0.03 -0.03 -0.03 -0.03 -0.03 -0.03 -0.04 -0.03 -0.04 -0.03 -0.04 -0.03 -0.04 -0.03 -0.05 -0.03 -0.05 -0.02 -0.05 -0.02 -0.05 -0.02 -0.05 -0.02 -0.06 -0.02 -0.06 -0.02 -0.06 -0.01 -0.06 -0.01 -0.06 -0.01 -0.06 -0.01 -0.07 -0.01 -0.07 -0.01 -0.07 -0 -0.07 -0 0 -0.43 0.08 0 0.08 0 0.08 0.01 0.08 0.01 0.08 0.01 0.08 0.01 0.08 0.02 0.07 0.02 0.07 0.02 0.07 0.02 0.07 0.03 0.07 0.03 0.06 0.03 0.06 0.03 0.06 0.03 0.06 0.04 0.06 0.04 0.05 0.04 0.05 0.04 0.05 0.04 0.05 0.05 0.04 0.05 0.04 0.05 0.04 0.05 0.03 0.05 0.03 0.06 0.03 0.06 0.02 0.06 0.02 0.06 0.01 0.06 0.01 0.06 0 0.06z"/>
   </g>
   <g>
    <path class="fil0" d="M1.68 6.33l0 0.43 0 0 -0.07 0 -0.07 0 -0.07 0.01 -0.07 0.01 -0.06 0.01 -0.06 0.01 -0.06 0.01 -0.06 0.01 -0.06 0.02 -0.06 0.02 -0.05 0.02 -0.05 0.02 -0.05 0.02 -0.05 0.02 -0.05 0.02 -0.04 0.03 -0.04 0.03 -0.04 0.03 -0.04 0.03 -0.03 0.03 -0.03 0.03 -0.03 0.03 -0.02 0.03 -0.02 0.03 -0.02 0.03 -0.02 0.03 -0.01 0.03 -0.01 0.03 -0.01 0.03 -0.01 0.03 -0 0.03 -0 0.03 -0.43 0 0 -0.06 0.01 -0.06 0.01 -0.06 0.02 -0.06 0.02 -0.06 0.03 -0.06 0.03 -0.06 0.03 -0.05 0.04 -0.05 0.04 -0.05 0.04 -0.05 0.05 -0.05 0.05 -0.04 0.05 -0.04 0.05 -0.04 0.06 -0.04 0.06 -0.04 0.06 -0.03 0.06 -0.03 0.07 -0.03 0.07 -0.03 0.07 -0.02 0.07 -0.02 0.07 -0.02 0.07 -0.02 0.07 -0.02 0.08 -0.01 0.08 -0.01 0.08 -0.01 0.08 -0.01 0.08 -0 0.08 -0 0 0zm1.68 1.14l-0.43 0 -0 -0.03 -0 -0.03 -0.01 -0.03 -0.01 -0.03 -0.01 -0.03 -0.01 -0.03 -0.02 -0.03 -0.02 -0.03 -0.02 -0.03 -0.02 -0.03 -0.03 -0.03 -0.03 -0.03 -0.03 -0.03 -0.04 -0.03 -0.04 -0.03 -0.04 -0.03 -0.04 -0.03 -0.05 -0.03 -0.05 -0.02 -0.05 -0.02 -0.05 -0.02 -0.05 -0.02 -0.06 -0.02 -0.06 -0.02 -0.06 -0.01 -0.06 -0.01 -0.06 -0.01 -0.06 -0.01 -0.07 -0.01 -0.07 -0.01 -0.07 -0 -0.07 -0 0 -0.43 0.08 0 0.08 0 0.08 0.01 0.08 0.01 0.08 0.01 0.08 0.01 0.08 0.02 0.07 0.02 0.07 0.02 0.07 0.02 0.07 0.03 0.07 0.03 0.06 0.03 0.06 0.03 0.06 0.03 0.06 0.04 0.06 0.04 0.05 0.04 0.05 0.04 0.05 0.04 0.05 0.05 0.04 0.05 0.04 0.05 0.04 0.05 0.03 0.05 0.03 0.06 0.03 0.06 0.02 0.06 0.02 0.06 0.01 0.06 0.01 0.06 0 0.06z"/>
   </g>
   <g>
    <path class="fil1" d="M1.71 4.25c0.55,0 1,0.42 1,0.93 0,0.51 -0.45,0.93 -1,0.93 -0.55,0 -1,-0.42 -1,-0.93 0,-0.51 0.45,-0.93 1,-0.93zm0.41 0.58c-0.1,-0.1 -0.25,-0.16 -0.41,-0.16 -0.16,0 -0.31,0.06 -0.41,0.16 -0.1,0.09 -0.15,0.21 -0.15,0.35 0,0.13 0.06,0.26 0.15,0.35 0.1,0.1 0.25,0.16 0.41,0.16 0.16,0 0.31,-0.06 0.41,-0.16 0.1,-0.09 0.15,-0.21 0.15,-0.35 0,-0.13 -0.06,-0.26 -0.15,-0.35z"/>
   </g>
   <polygon class="fil2" points="-0,7.46 3.36,7.46 3.36,7.64 -0,7.64 "/>
   <polygon class="fil1" points="2.99,3.21 6.35,3.21 6.35,3.39 2.99,3.39 "/>
   <g>
    <path class="fil1" d="M4.7 0c0.55,0 1,0.42 1,0.93 0,0.51 -0.45,0.93 -1,0.93 -0.55,0 -1,-0.42 -1,-0.93 0,-0.51 0.45,-0.93 1,-0.93zm0.41 0.58c-0.1,-0.1 -0.25,-0.16 -0.41,-0.16 -0.16,0 -0.31,0.06 -0.41,0.16 -0.1,0.09 -0.15,0.21 -0.15,0.35 0,0.13 0.06,0.26 0.15,0.35 0.1,0.1 0.25,0.16 0.41,0.16 0.16,0 0.31,-0.06 0.41,-0.16 0.1,-0.09 0.15,-0.21 0.15,-0.35 0,-0.13 -0.06,-0.26 -0.15,-0.35z"/>
   </g>
   <g>
    <path class="fil0" d="M4.67 2.08l0 0.43 0 0 -0.07 0 -0.07 0 -0.07 0.01 -0.07 0.01 -0.06 0.01 -0.06 0.01 -0.06 0.01 -0.06 0.01 -0.06 0.02 -0.06 0.02 -0.05 0.02 -0.05 0.02 -0.05 0.02 -0.05 0.02 -0.05 0.02 -0.04 0.03 -0.04 0.03 -0.04 0.03 -0.04 0.03 -0.03 0.03 -0.03 0.03 -0.03 0.03 -0.02 0.03 -0.02 0.03 -0.02 0.03 -0.02 0.03 -0.01 0.03 -0.01 0.03 -0.01 0.03 -0.01 0.03 -0 0.03 -0 0.03 -0.43 0 0 -0.06 0.01 -0.06 0.01 -0.06 0.02 -0.06 0.02 -0.06 0.03 -0.06 0.03 -0.06 0.03 -0.05 0.04 -0.05 0.04 -0.05 0.04 -0.05 0.05 -0.05 0.05 -0.04 0.05 -0.04 0.05 -0.04 0.06 -0.04 0.06 -0.04 0.06 -0.03 0.06 -0.03 0.07 -0.03 0.07 -0.03 0.07 -0.02 0.07 -0.02 0.07 -0.02 0.07 -0.02 0.07 -0.02 0.08 -0.01 0.08 -0.01 0.08 -0.01 0.08 -0.01 0.08 -0 0.08 -0 0 0zm1.68 1.14l-0.43 0 -0 -0.03 -0 -0.03 -0.01 -0.03 -0.01 -0.03 -0.01 -0.03 -0.01 -0.03 -0.02 -0.03 -0.02 -0.03 -0.02 -0.03 -0.02 -0.03 -0.03 -0.03 -0.03 -0.03 -0.03 -0.03 -0.04 -0.03 -0.04 -0.03 -0.04 -0.03 -0.04 -0.03 -0.05 -0.03 -0.05 -0.02 -0.05 -0.02 -0.05 -0.02 -0.05 -0.02 -0.06 -0.02 -0.06 -0.02 -0.06 -0.01 -0.06 -0.01 -0.06 -0.01 -0.06 -0.01 -0.07 -0.01 -0.07 -0.01 -0.07 -0 -0.07 -0 0 -0.43 0.08 0 0.08 0 0.08 0.01 0.08 0.01 0.08 0.01 0.08 0.01 0.08 0.02 0.07 0.02 0.07 0.02 0.07 0.02 0.07 0.03 0.07 0.03 0.06 0.03 0.06 0.03 0.06 0.03 0.06 0.04 0.06 0.04 0.05 0.04 0.05 0.04 0.05 0.04 0.05 0.05 0.04 0.05 0.04 0.05 0.04 0.05 0.03 0.05 0.03 0.06 0.03 0.06 0.02 0.06 0.02 0.06 0.01 0.06 0.01 0.06 0 0.06z"/>
   </g>
  </g>
 </g>
</svg>
