<?xml version="1.0" encoding="UTF-8"?>
<!DOCTYPE svg PUBLIC "-//W3C//DTD SVG 1.1//EN" "http://www.w3.org/Graphics/SVG/1.1/DTD/svg11.dtd">
<!-- Creator: CorelDRAW 2018 (64-Bit) -->
<svg xmlns="http://www.w3.org/2000/svg" xml:space="preserve" width="4.1246mm" height="3.2465mm" version="1.1" style="shape-rendering:geometricPrecision; text-rendering:geometricPrecision; image-rendering:optimizeQuality; fill-rule:evenodd; clip-rule:evenodd"
viewBox="0 0 8.32 6.55"
 xmlns:xlink="http://www.w3.org/1999/xlink">
 <defs>
  <style type="text/css">
   <![CDATA[
    .str0 {stroke:#FEFEFE;stroke-width:0.3;stroke-miterlimit:22.9256}
    .str1 {stroke:#FEFEFE;stroke-width:0.2;stroke-miterlimit:22.9256}
    .fil0 {fill:#FEFEFE;fill-rule:nonzero}
   ]]>
  </style>
 </defs>
 <g id="Слой_x0020_1">
  <metadata id="CorelCorpID_0Corel-Layer"/>
  <g id="_2990603043344">
   <path class="fil0" d="M3.22 5.37l2.14 0 0.36 1.18c-0.96,-0 -1.92,-0 -2.88,-0 0.12,-0.39 0.24,-0.79 0.35,-1.18l0.04 0zm2.07 0.09l-2.03 -0 -0.3 1 2.63 0 -0.3 -1z"/>
   <polygon class="fil0" points="2.19,6.42 6.35,6.42 6.35,6.53 2.19,6.53 "/>
   <path class="fil0 str0" d="M0.21 0.15l7.96 0 0 5.31 -8.02 0 0 -5.31 0.06 0zm7.84 0.11l-7.78 0 0 5.08 7.78 0 0 -5.08z"/>
   <polygon class="fil0 str1" points="1.24,2.58 2.23,2.58 3.06,1.21 4.06,3.89 5.03,1.7 5.73,3.24 6.28,2.55 7.08,2.57 7.07,2.77 6.38,2.76 5.68,3.64 5.03,2.22 4.04,4.44 3.01,1.69 2.35,2.79 1.24,2.79 "/>
  </g>
 </g>
</svg>
