<?xml version="1.0" encoding="UTF-8"?>
<!DOCTYPE svg PUBLIC "-//W3C//DTD SVG 1.1//EN" "http://www.w3.org/Graphics/SVG/1.1/DTD/svg11.dtd">
<!-- Creator: CorelDRAW 2018 (64-Bit) -->
<svg xmlns="http://www.w3.org/2000/svg" xml:space="preserve" width="3.6865mm" height="3.6328mm" version="1.1" style="shape-rendering:geometricPrecision; text-rendering:geometricPrecision; image-rendering:optimizeQuality; fill-rule:evenodd; clip-rule:evenodd"
viewBox="0 0 6.67 6.58"
 xmlns:xlink="http://www.w3.org/1999/xlink">
 <defs>
  <style type="text/css">
   <![CDATA[
    .fil0 {fill:#FEFEFE}
   ]]>
  </style>
 </defs>
 <g id="Слой_x0020_1">
  <metadata id="CorelCorpID_0Corel-Layer"/>
  <g id="_2990603040272">
   <path class="fil0" d="M5.63 1.69l0 0zm1.04 -0.4l0 0.06c-0,0.01 -0,0.02 -0,0.03 -0.01,0.04 -0.03,0.09 -0.05,0.12l-0.14 0.35c-0.04,0.1 -0.12,0.38 -0.21,0.44 -0.08,0.06 -0.15,0.07 -0.25,0.03l-0.7 -0.28c-0.1,-0.04 -0.16,-0.05 -0.2,-0.14 -0.09,-0.17 0.05,-0.38 0.27,-0.32 0.08,0.02 0.18,0.08 0.24,0.08 -0.04,-0.07 -0.09,-0.13 -0.14,-0.2 -0.05,-0.06 -0.1,-0.11 -0.15,-0.17 -0.06,-0.06 -0.11,-0.12 -0.17,-0.17 -0.17,-0.15 -0.39,-0.29 -0.59,-0.4 -0.67,-0.34 -1.45,-0.4 -2.19,-0.15 -0.17,0.06 -0.31,0.13 -0.45,0.2 -0.07,0.03 -0.15,0.08 -0.21,0.13 -0.07,0.05 -0.12,0.09 -0.19,0.14 -0.12,0.09 -0.11,0.11 -0.18,0.16 -0.04,0.03 -0.06,0.04 -0.09,0.08l-0.23 0.27c-0.05,0.06 -0.09,0.13 -0.13,0.19 -0.08,0.12 -0.17,0.29 -0.23,0.43 -0.03,0.08 -0.06,0.16 -0.09,0.25 -0.12,0.37 -0.1,0.52 -0.13,0.86 -0.01,0.19 -0.23,0.28 -0.38,0.16 -0.04,-0.04 -0.07,-0.1 -0.08,-0.18l0 -0.22c0,-0.06 0.01,-0.12 0.02,-0.16 0.07,-0.5 0.13,-0.62 0.3,-1.03 0.07,-0.17 0.34,-0.57 0.46,-0.7 0.03,-0.03 0.04,-0.05 0.07,-0.08 0.62,-0.67 1.29,-0.98 2.23,-1.08 0.22,-0.02 0.45,0.01 0.64,0.02 0.21,0.02 0.49,0.09 0.67,0.16 0.04,0.02 0.07,0.02 0.12,0.04 0.19,0.08 0.18,0.08 0.34,0.16 0.2,0.11 0.23,0.13 0.41,0.25 0.19,0.13 0.46,0.39 0.59,0.56l0.27 0.38c0.02,-0.08 0.06,-0.16 0.09,-0.25 0.03,-0.08 0.05,-0.16 0.12,-0.2 0.14,-0.09 0.32,-0 0.34,0.16z"/>
   <path class="fil0" d="M3.38 6.13c-1.08,0 -1.91,-0.59 -2.35,-1.24 0.13,0.01 0.14,0.09 0.35,0.09 0.12,0 0.21,-0.16 0.18,-0.28 -0.04,-0.14 -0.17,-0.16 -0.3,-0.21 -0.1,-0.04 -0.67,-0.27 -0.73,-0.27 -0.2,0 -0.26,0.27 -0.33,0.45 -0.04,0.1 -0.21,0.51 -0.21,0.59 0,0.12 0.09,0.22 0.23,0.22 0.19,0 0.22,-0.21 0.31,-0.41l0.03 -0.07c0.03,0.11 0.36,0.5 0.46,0.6 0.18,0.18 0.37,0.34 0.59,0.47 0.11,0.07 0.23,0.14 0.34,0.19 0.36,0.17 0.88,0.32 1.29,0.32 0.4,0 0.54,-0 0.92,-0.09 0.22,-0.05 0.54,-0.17 0.73,-0.28 0.4,-0.23 0.29,-0.17 0.61,-0.42 0.17,-0.13 0.46,-0.48 0.58,-0.65 0.19,-0.29 0.29,-0.49 0.4,-0.82 0.08,-0.23 0.12,-0.42 0.14,-0.68 0.01,-0.08 0.03,-0.32 0.01,-0.38 -0.06,-0.25 -0.39,-0.23 -0.44,-0.02 -0.03,0.13 -0.01,0.38 -0.09,0.73 -0.11,0.46 -0.39,0.98 -0.73,1.31l-0.22 0.2c-0.17,0.15 -0.41,0.3 -0.63,0.39 -0.39,0.17 -0.71,0.26 -1.18,0.26z"/>
   <path class="fil0" d="M1.67 2.57c0,0.56 0.71,1.39 1.21,1.76 0.38,0.29 0.79,0.54 1.33,0.54 0.19,0 0.4,-0.08 0.5,-0.17 0.11,-0.09 0.24,-0.26 0.28,-0.41 0.05,-0.21 -0.12,-0.24 -0.3,-0.35 -0.07,-0.04 -0.42,-0.23 -0.46,-0.23 -0.11,0 -0.16,0.07 -0.27,0.2 -0.05,0.05 -0.14,0.19 -0.23,0.19 -0.14,0 -0.4,-0.18 -0.49,-0.25l-0.2 -0.16c-0.03,-0.03 -0.06,-0.06 -0.09,-0.09 -0.12,-0.1 -0.38,-0.44 -0.38,-0.55 -0.01,-0.15 0.27,-0.24 0.27,-0.48 0,-0.1 -0.15,-0.37 -0.19,-0.47 -0.05,-0.12 -0.15,-0.39 -0.28,-0.39 -0.24,0 -0.35,0.14 -0.48,0.32 -0.08,0.11 -0.21,0.35 -0.21,0.54z"/>
  </g>
 </g>
</svg>
