<?xml version="1.0" encoding="UTF-8"?>
<!DOCTYPE svg PUBLIC "-//W3C//DTD SVG 1.1//EN" "http://www.w3.org/Graphics/SVG/1.1/DTD/svg11.dtd">
<!-- Creator: CorelDRAW 2018 (64-Bit) -->
<svg xmlns="http://www.w3.org/2000/svg" xml:space="preserve" width="7.6841mm" height="3.6666mm" version="1.1" style="shape-rendering:geometricPrecision; text-rendering:geometricPrecision; image-rendering:optimizeQuality; fill-rule:evenodd; clip-rule:evenodd"
viewBox="0 0 28.42 13.56"
 xmlns:xlink="http://www.w3.org/1999/xlink">
 <defs>
  <style type="text/css">
   <![CDATA[
    .fil0 {fill:#FEFEFE}
    .fil1 {fill:#FEFEFE;fill-rule:nonzero}
   ]]>
  </style>
 </defs>
 <g id="Слой_x0020_1">
  <metadata id="CorelCorpID_0Corel-Layer"/>
  <g id="_2990499653088">
   <g>
    <path class="fil0" d="M17.81 0l10.61 0 0 13.53 -10.61 0 0 -13.53zm9.87 0.74l-9.13 0 0 12.05 9.13 0 0 -12.05z"/>
   </g>
   <g id="_2990499654016">
    <g>
     <path class="fil0" d="M20.4 3.14l2.27 0c0.12,0 0.23,0.1 0.23,0.23l0 0.01c0,0.12 -0.1,0.23 -0.23,0.23l-2.27 0c-0.12,0 -0.23,-0.1 -0.23,-0.23l0 -0.01c0,-0.12 0.1,-0.23 0.23,-0.23z"/>
    </g>
    <g>
     <path class="fil0" d="M20.41 4.95l5.65 0c0.12,0 0.23,0.1 0.23,0.23l0 0.01c0,0.12 -0.1,0.23 -0.23,0.23l-5.65 0c-0.12,0 -0.23,-0.1 -0.23,-0.23l0 -0.01c0,-0.12 0.1,-0.23 0.23,-0.23z"/>
    </g>
    <g>
     <path class="fil0" d="M20.41 6.75l5.65 0c0.12,0 0.23,0.1 0.23,0.23l0 0.01c0,0.12 -0.1,0.23 -0.23,0.23l-5.65 0c-0.12,0 -0.23,-0.1 -0.23,-0.23l0 -0.01c0,-0.12 0.1,-0.23 0.23,-0.23z"/>
    </g>
    <g>
     <path class="fil0" d="M20.41 8.54l5.65 0c0.12,0 0.23,0.1 0.23,0.23l0 0.01c0,0.12 -0.1,0.23 -0.23,0.23l-5.65 0c-0.12,0 -0.23,-0.1 -0.23,-0.23l0 -0.01c0,-0.12 0.1,-0.23 0.23,-0.23z"/>
    </g>
    <g>
     <path class="fil0" d="M20.4 10.36l5.65 0c0.12,0 0.23,0.1 0.23,0.23l0 0.01c0,0.12 -0.1,0.23 -0.23,0.23l-5.65 0c-0.12,0 -0.23,-0.1 -0.23,-0.23l0 -0.01c0,-0.12 0.1,-0.23 0.23,-0.23z"/>
    </g>
   </g>
  </g>
  <g>
   <g>
    <path class="fil0" d="M-0 0.03l10.61 0 0 13.53 -10.61 0 0 -13.53zm9.87 0.74l-9.13 0 0 12.05 9.13 0 0 -12.05z"/>
   </g>
   <g>
    <g>
     <path class="fil0" d="M2.6 3.17l2.27 0c0.12,0 0.23,0.1 0.23,0.23l0 0.01c0,0.12 -0.1,0.23 -0.23,0.23l-2.27 0c-0.12,0 -0.23,-0.1 -0.23,-0.23l0 -0.01c0,-0.12 0.1,-0.23 0.23,-0.23z"/>
    </g>
    <g>
     <path class="fil0" d="M2.6 4.98l5.65 0c0.12,0 0.23,0.1 0.23,0.23l0 0.01c0,0.12 -0.1,0.23 -0.23,0.23l-5.65 0c-0.12,0 -0.23,-0.1 -0.23,-0.23l0 -0.01c0,-0.12 0.1,-0.23 0.23,-0.23z"/>
    </g>
    <g>
     <path class="fil0" d="M2.6 6.78l5.65 0c0.12,0 0.23,0.1 0.23,0.23l0 0.01c0,0.12 -0.1,0.23 -0.23,0.23l-5.65 0c-0.12,0 -0.23,-0.1 -0.23,-0.23l0 -0.01c0,-0.12 0.1,-0.23 0.23,-0.23z"/>
    </g>
    <g>
     <path class="fil0" d="M2.6 8.57l5.65 0c0.12,0 0.23,0.1 0.23,0.23l0 0.01c0,0.12 -0.1,0.23 -0.23,0.23l-5.65 0c-0.12,0 -0.23,-0.1 -0.23,-0.23l0 -0.01c0,-0.12 0.1,-0.23 0.23,-0.23z"/>
    </g>
    <g>
     <path class="fil0" d="M2.59 10.38l5.65 0c0.12,0 0.23,0.1 0.23,0.23l0 0.01c0,0.12 -0.1,0.23 -0.23,0.23l-5.65 0c-0.12,0 -0.23,-0.1 -0.23,-0.23l0 -0.01c0,-0.12 0.1,-0.23 0.23,-0.23z"/>
    </g>
   </g>
  </g>
  <polygon class="fil0" points="14.51,9.51 15.95,8.39 14.49,7.25 "/>
  <g>
   <polygon class="fil1" points="14.86,8.71 12.45,8.71 12.45,8.15 14.86,8.15 "/>
  </g>
  <polygon class="fil0" points="13.93,4.7 12.45,5.78 13.87,6.97 "/>
  <g>
   <polygon class="fil1" points="15.95,6.1 13.54,6.1 13.54,5.54 15.95,5.54 "/>
  </g>
 </g>
</svg>
